<?xml version="1.0" encoding="utf-8"?>
<!-- Generator: Adobe Illustrator 24.0.1, SVG Export Plug-In . SVG Version: 6.00 Build 0)  -->
<svg version="1.1" id="Layer_1" xmlns="http://www.w3.org/2000/svg" xmlns:xlink="http://www.w3.org/1999/xlink" x="0px" y="0px"
	 viewBox="0 0 60 60" style="enable-background:new 0 0 60 60;" xml:space="preserve">
<style type="text/css">
	.st0{clip-path:url(#SVGID_2_);}
	.st1{fill-rule:evenodd;clip-rule:evenodd;fill:#FFFFFF;}
	.st2{fill-rule:evenodd;clip-rule:evenodd;fill:#D1D8E0;}
	.st3{fill-rule:evenodd;clip-rule:evenodd;fill:#A8A8A8;}
	.st4{fill-rule:evenodd;clip-rule:evenodd;fill:#FF4C4C;}
	.st5{fill-rule:evenodd;clip-rule:evenodd;fill:#00B0FF;}
</style>
<title>49Asset 1</title>
<g id="Layer_2_1_">
	<g id="Layer_1-2">
		<g>
			<g>
				<defs>
					<rect id="SVGID_1_" width="60" height="60"/>
				</defs>
				<clipPath id="SVGID_2_">
					<use xlink:href="#SVGID_1_"  style="overflow:visible;"/>
				</clipPath>
				<g class="st0">
					<path class="st1" d="M11.7,11l7.7,4.9c0.5,0.3,1,0.5,1.6,0.5c0.5,0,1-0.1,1.4-0.4c0.5-0.2,0.9-0.6,1.2-1.1
						c0.3-0.5,0.4-1,0.4-1.5V11h4c0.2,0,0.4-0.1,0.6-0.2c0.2-0.1,0.3-0.3,0.3-0.5l3-9C32,1.2,32,1,32,0.8s-0.1-0.3-0.2-0.4
						C31.6,0.2,31.3,0,31,0h-4c-0.3,0-0.6,0.2-0.8,0.4L24.4,3H6C4.4,3,1.1,5.5,0.3,6.3c-0.4,0.4-0.4,1,0,1.4c2,2,4.2,3.3,5.7,3.3
						H11.7z M6,5h18.9c0.3,0,0.6-0.2,0.8-0.4L27.5,2h2.1l-2.3,7H23c-0.1,0-0.3,0-0.4,0.1c-0.3,0.1-0.5,0.3-0.5,0.6
						C22,9.7,22,9.9,22,10v3.4c0,0.2,0,0.4-0.1,0.5c-0.1,0.2-0.2,0.3-0.4,0.4c-0.3,0.2-0.7,0.2-1,0l-7.9-5c-0.1-0.1-0.2-0.2-0.3-0.2
						C12.2,9,12.1,9,12,9H6C4.7,8.7,3.5,8,2.5,7C3.5,6.1,4.7,5.5,6,5z"/>
					<path class="st2" d="M53,46H39V30c0-0.1,0-0.3-0.1-0.4c-0.1-0.3-0.3-0.5-0.5-0.5C38.3,29,38.1,29,38,29H24
						c-0.1,0-0.3,0-0.4,0.1c-0.3,0.1-0.5,0.3-0.5,0.5c0,0.1-0.1,0.3-0.1,0.4v9H12c-0.1,0-0.3,0-0.4,0.1c-0.3,0.1-0.5,0.3-0.6,0.5
						c0,0.1-0.1,0.3-0.1,0.4v19c0,0.6,0.4,1,1,1s1-0.4,1-1V41h10v18c0,0.6,0.4,1,1,1s1-0.4,1-1V31h12v28c0,0.6,0.4,1,1,1s1-0.4,1-1
						V48h13v11c0,0.6,0.4,1,1,1s1-0.4,1-1V47c0-0.1,0-0.3-0.1-0.4c-0.1-0.3-0.3-0.5-0.5-0.5C53.3,46,53.1,46,53,46z"/>
					<path class="st3" d="M20.9,22.6c0-0.1-0.1-0.2-0.2-0.3c-0.1-0.1-0.2-0.1-0.3-0.2c-0.1,0-0.3,0-0.4,0s-0.3,0.1-0.4,0.1L17.8,23
						H12c-0.6,0-1,0.4-1,1s0.4,1,1,1h5.8l1.8,0.9C19.7,26,19.8,26,20,26c0.4,0,0.7-0.2,0.9-0.6c0.1-0.2,0.1-0.5,0-0.7
						s-0.2-0.4-0.4-0.6L20.2,24l0.2-0.1c0.2-0.1,0.4-0.3,0.5-0.6C20.9,23.1,20.9,22.9,20.9,22.6"/>
					<path class="st3" d="M14.6,19.9C14.7,20,14.8,20,15,20c0.4,0,0.7-0.2,0.9-0.6c0.1-0.2,0.1-0.5,0-0.7s-0.2-0.4-0.4-0.6L15.1,18
						l0.2-0.1c0.2,0,0.3-0.1,0.4-0.2c0.1-0.1,0.2-0.2,0.3-0.4c0.1-0.1,0.1-0.3,0.1-0.5s0-0.3-0.1-0.5c-0.1-0.1-0.2-0.2-0.3-0.3
						c-0.1-0.1-0.3-0.2-0.4-0.2c-0.2,0-0.3,0-0.5,0c-0.1,0-0.3,0.1-0.4,0.2l-1.7,1H7c-0.6,0-1,0.4-1,1s0.4,1,1,1h5.8L14.6,19.9"/>
					<path class="st4" d="M60,29.8c-0.1-0.4-0.4-0.7-0.8-0.8l-8.4-1.7l7-8.7c0.3-0.3,0.3-0.9,0-1.2c-0.1-0.2-0.3-0.3-0.5-0.4
						s-0.4-0.1-0.6,0l-9,2.7l-2.7-9c-0.1-0.2-0.2-0.4-0.3-0.5c-0.2-0.1-0.4-0.2-0.6-0.2c-0.2,0-0.4,0.1-0.6,0.2
						c-0.2,0.1-0.3,0.3-0.4,0.4L38.8,20c-0.9-1.3-2.5-3.3-5-6.6c-0.3-0.3-0.7-0.5-1.1-0.4c-0.2,0.1-0.4,0.2-0.5,0.3
						c-0.1,0.2-0.2,0.4-0.2,0.6l-1,10c0,0.3,0.1,0.5,0.2,0.7c0.2,0.2,0.4,0.3,0.7,0.4c0.3,0,0.5-0.1,0.7-0.2
						c0.2-0.2,0.3-0.4,0.4-0.7l0.7-7.5c1.9,2.5,4,5.3,4.4,5.8c0.1,0.1,0.1,0.2,0.3,0.3c0.1,0.1,0.2,0.2,0.3,0.2
						c0.2,0.1,0.4,0.1,0.6,0c0.2-0.1,0.4-0.2,0.5-0.4c0.1-0.1,0.1-0.1,0.2-0.2c0-0.1,0.1-0.2,0-0.2l3.8-8.4l2.2,7.4
						c0.2,0.5,0.7,0.8,1.2,0.7l6.9-2.1l-6,7.5c-0.1,0.1-0.2,0.3-0.2,0.5s0,0.3,0,0.5c0.1,0.3,0.4,0.6,0.7,0.6l7.6,1.5l-7,4.7
						c-0.1,0.1-0.2,0.2-0.3,0.3s-0.1,0.2-0.2,0.4c0,0.1,0,0.3,0,0.4c0,0.1,0.1,0.3,0.2,0.4c0.1,0.1,0.2,0.2,0.3,0.3s0.3,0.1,0.5,0.1
						s0.4-0.1,0.6-0.2l9-6C59.9,30.6,60.1,30.2,60,29.8z"/>
					<path class="st5" d="M34,35h-6c-0.6,0-1,0.4-1,1s0.4,1,1,1h6c0.6,0,1-0.4,1-1S34.6,35,34,35z"/>
					<path class="st5" d="M34,39h-6c-0.6,0-1,0.4-1,1s0.4,1,1,1h6c0.6,0,1-0.4,1-1S34.6,39,34,39z"/>
					<path class="st5" d="M34,43h-6c-0.6,0-1,0.4-1,1s0.4,1,1,1h6c0.6,0,1-0.4,1-1S34.6,43,34,43z"/>
					<path class="st5" d="M34,47h-6c-0.6,0-1,0.4-1,1s0.4,1,1,1h6c0.6,0,1-0.4,1-1S34.6,47,34,47z"/>
					<path class="st5" d="M34,51h-6c-0.6,0-1,0.4-1,1s0.4,1,1,1h6c0.6,0,1-0.4,1-1S34.6,51,34,51z"/>
					<path class="st5" d="M16,43c-0.1,0-0.3,0-0.4,0.1c-0.3,0.1-0.5,0.3-0.6,0.5c0,0.1-0.1,0.3-0.1,0.4v1c0,0.6,0.4,1,1,1s1-0.4,1-1
						v-1c0-0.1,0-0.3-0.1-0.4c-0.1-0.3-0.3-0.5-0.5-0.5C16.3,43,16.1,43,16,43z"/>
					<path class="st5" d="M20,43c-0.1,0-0.3,0-0.4,0.1c-0.3,0.1-0.5,0.3-0.5,0.5c0,0.1-0.1,0.3-0.1,0.4v1c0,0.6,0.4,1,1,1s1-0.4,1-1
						v-1c0-0.1,0-0.3-0.1-0.4c-0.1-0.3-0.3-0.5-0.5-0.5C20.3,43,20.1,43,20,43z"/>
					<path class="st5" d="M16,48c-0.1,0-0.3,0-0.4,0.1c-0.3,0.1-0.5,0.3-0.6,0.5c0,0.1-0.1,0.3-0.1,0.4v1c0,0.6,0.4,1,1,1s1-0.4,1-1
						v-1c0-0.1,0-0.3-0.1-0.4c-0.1-0.3-0.3-0.5-0.5-0.5C16.3,48,16.1,48,16,48z"/>
					<path class="st5" d="M20,48c-0.1,0-0.3,0-0.4,0.1c-0.3,0.1-0.5,0.3-0.5,0.5c0,0.1-0.1,0.3-0.1,0.4v1c0,0.6,0.4,1,1,1s1-0.4,1-1
						v-1c0-0.1,0-0.3-0.1-0.4c-0.1-0.3-0.3-0.5-0.5-0.5C20.3,48,20.1,48,20,48z"/>
					<path class="st5" d="M16,53c-0.1,0-0.3,0-0.4,0.1c-0.3,0.1-0.5,0.3-0.6,0.5c0,0.1-0.1,0.3-0.1,0.4v1c0,0.6,0.4,1,1,1s1-0.4,1-1
						v-1c0-0.1,0-0.3-0.1-0.4c-0.1-0.3-0.3-0.5-0.5-0.5C16.3,53,16.1,53,16,53z"/>
					<path class="st5" d="M20,53c-0.1,0-0.3,0-0.4,0.1c-0.3,0.1-0.5,0.3-0.5,0.5c0,0.1-0.1,0.3-0.1,0.4v1c0,0.6,0.4,1,1,1s1-0.4,1-1
						v-1c0-0.1,0-0.3-0.1-0.4c-0.1-0.3-0.3-0.5-0.5-0.5C20.3,53,20.1,53,20,53z"/>
					<path class="st5" d="M34,55h-6c-0.6,0-1,0.4-1,1s0.4,1,1,1h6c0.6,0,1-0.4,1-1S34.6,55,34,55z"/>
					<path class="st5" d="M49,51h-8c-0.6,0-1,0.4-1,1s0.4,1,1,1h8c0.6,0,1-0.4,1-1S49.6,51,49,51z"/>
					<path class="st5" d="M49,55h-8c-0.6,0-1,0.4-1,1s0.4,1,1,1h8c0.6,0,1-0.4,1-1S49.6,55,49,55z"/>
				</g>
			</g>
		</g>
	</g>
</g>
</svg>
