<?xml version="1.0" encoding="utf-8"?>
<!-- Generator: Adobe Illustrator 24.0.1, SVG Export Plug-In . SVG Version: 6.00 Build 0)  -->
<svg version="1.1" id="Layer_1" xmlns="http://www.w3.org/2000/svg" xmlns:xlink="http://www.w3.org/1999/xlink" x="0px" y="0px"
	 viewBox="0 0 58 51.8" style="enable-background:new 0 0 58 51.8;" xml:space="preserve">
<style type="text/css">
	.st0{fill:#3A4D32;}
	.st1{fill:#F5B300;}
</style>
<title>Asset 1</title>
<g id="Layer_2_1_">
	<g id="Layer_1-2">
		<polygon class="st0" points="34.1,19.7 18.8,19.7 7.9,30.5 14.1,30.5 		"/>
		<polygon class="st0" points="9.6,4.9 5.5,4.9 7.8,13.6 16.4,12.2 		"/>
		<path class="st0" d="M52.4,17.9C52.4,17.9,52.4,17.9,52.4,17.9l-10.2-0.1c-1.6,0-3-1.3-3-3v-1.8l-21.4,0.2L8,14.9V19l7.7,1.9
			l2.4-2.3c0.1-0.1,0.3-0.2,0.5-0.2h18.1c0.4,0,0.7,0.3,0.7,0.7c0,0.2-0.1,0.5-0.3,0.6l-2.8,1.5c6.2,0,10,0,11.9,0.2
			C49.8,21.4,53.1,21,52.4,17.9z"/>
		<path class="st0" d="M42.2,16.5h8.7c-1.8-1-6.8-3.2-10.4-3.4v1.8C40.5,15.8,41.3,16.5,42.2,16.5C42.2,16.5,42.2,16.5,42.2,16.5z"
			/>
		<path class="st1" d="M48,35.1L38.2,31l-2.4,0.6c-0.1,0-0.3,0-0.4,0l-1.6-0.7c0,0.3,0.1,1.2-0.2,1.5l-0.4,0.4l1.4,0.6
			c0.1,0.1,0.2,0.1,0.3,0.3l1.3,2.1l9.8,4.1c0.9,0.4,2.9-0.4,4.1-1.1C49.7,37.4,48.9,35.5,48,35.1z"/>
		<path class="st1" d="M36.7,42l-9.8-4.2c-0.6,0.1-2.7,0.8-2.9,0.6l-1.6-0.7c0,0.4,0,0.9-0.1,1.3c-0.1,0.2-0.3,0.4-0.5,0.6l1.4,0.6
			c0.3,0,1.3,2,1.6,2.4l9.9,4.2c0.9,0.4,2.9-0.4,4.1-1.1C38.4,44.3,37.6,42.4,36.7,42z"/>
		<polygon class="st1" points="26.3,33.1 29.4,34.4 31.9,32.1 28.6,30.7 		"/>
		<polygon class="st1" points="32.4,29.8 32.4,27.5 29.3,26.2 29.1,29.5 32.4,30.9 		"/>
		<polygon class="st1" points="17.7,36.4 21.1,37.8 21.1,34.4 18,33.1 		"/>
		<polygon class="st1" points="15,40 18,41.3 20.5,39 17.2,37.6 		"/>
	</g>
</g>
</svg>
