<?xml version="1.0" encoding="utf-8"?>
<!-- Generator: Adobe Illustrator 24.0.1, SVG Export Plug-In . SVG Version: 6.00 Build 0)  -->
<svg version="1.1" id="Layer_1" xmlns="http://www.w3.org/2000/svg" xmlns:xlink="http://www.w3.org/1999/xlink" x="0px" y="0px"
	 viewBox="0 0 80 80" style="enable-background:new 0 0 80 80;" xml:space="preserve">
<style type="text/css">
	.st0{fill:#2A9D8F;}
</style>
<title>50Asset 1</title>
<g id="Layer_2_1_">
	<g id="Layer_1-2">
		<path class="st0" d="M35.1,41.8c-3.5-0.4-7-0.7-10.5-0.7s-7,0.2-10.5,0.7c-1.6,0.2-2.8,1.5-3,3c-0.9,7-0.9,14.1,0,21
			c0.2,1.6,1.5,2.7,3,3c3.5,0.4,7,0.7,10.5,0.7s7-0.2,10.5-0.7c1.6-0.2,2.9-1.5,3-3c0.9-7,0.9-14,0-20.9
			C37.9,43.3,36.7,42.1,35.1,41.8L35.1,41.8z M33.7,64.5c-3,0.4-6.1,0.5-9.1,0.5s-6.1-0.1-9.1-0.5c-0.7-6.1-0.7-12.2,0-18.3
			c6.1-0.7,12.2-0.7,18.3,0C34.4,52.3,34.4,58.4,33.7,64.5L33.7,64.5z M65.9,41.8c-3.5-0.4-7-0.7-10.5-0.7c-3.6,0-7,0.2-10.5,0.7
			c-1.6,0.2-2.8,1.5-3,3c-0.9,7-0.9,14.1,0,21c0.2,1.6,1.5,2.7,3,3c3.5,0.4,7,0.7,10.5,0.7s7-0.2,10.5-0.7c1.6-0.2,2.9-1.5,3-3
			c0.9-7,0.9-14,0-20.9C68.7,43.3,67.5,42.1,65.9,41.8z M64.6,64.5c-3,0.4-6.1,0.5-9.1,0.5s-6.1-0.1-9.1-0.5
			c-0.7-6.1-0.7-12.2,0-18.3c6.1-0.7,12.2-0.7,18.2,0C65.2,52.3,65.2,58.4,64.6,64.5L64.6,64.5z M35.1,11.1c-3.5-0.4-7-0.7-10.5-0.7
			c-3.6,0-7,0.2-10.6,0.7c-1.6,0.2-2.8,1.5-3,3c-0.9,7-0.9,14.1,0,21c0.2,1.6,1.5,2.8,3,3c3.5,0.4,7,0.7,10.5,0.7
			c3.5,0,7-0.2,10.5-0.7c1.6-0.1,2.9-1.4,3-3c0.9-7,0.9-14,0-21C37.9,12.5,36.7,11.3,35.1,11.1z M33.7,33.7c-3,0.4-6.1,0.5-9.1,0.5
			s-6.1-0.1-9.1-0.5c-0.7-6.1-0.7-12.2-0.1-18.3c3-0.4,6.1-0.5,9.1-0.5s6.1,0.1,9.1,0.5C34.4,21.5,34.4,27.6,33.7,33.7z M44.9,38.1
			c3.5,0.4,7,0.7,10.5,0.7c3.5,0,7-0.2,10.5-0.7c1.6-0.2,2.9-1.4,3-3c0.9-7,0.9-14.1,0-21c-0.2-1.6-1.5-2.9-3-3
			c-7-0.9-14.1-0.9-21,0c-1.6,0.2-2.8,1.5-3,3c-0.9,7-0.9,14.1,0,21C42.1,36.7,43.3,37.9,44.9,38.1L44.9,38.1z M46.3,15.4
			c3-0.4,6.1-0.5,9.1-0.5c3,0,6.1,0.1,9.1,0.5c0.7,6.1,0.7,12.2,0,18.3c-3,0.4-6.1,0.5-9.1,0.5c-3,0-6.1-0.1-9.1-0.5
			C45.6,27.6,45.6,21.5,46.3,15.4L46.3,15.4z M31.1,24.6c0,1.3-1,2.3-2.3,2.3h-2v1.9c-0.1,1.3-1.2,2.2-2.4,2.1
			c-1.2-0.1-2.1-1-2.1-2.1v-1.9h-1.9c-1.3-0.1-2.2-1.2-2.1-2.4c0.1-1.2,1-2.1,2.1-2.1h1.9v-1.9c0.1-1.3,1.2-2.2,2.4-2.1
			c1.2,0.1,2.1,1,2.1,2.1v1.9h1.9C30.1,22.3,31.1,23.3,31.1,24.6C31.1,24.5,31.1,24.6,31.1,24.6z M49,24.6c0-1.3,1-2.3,2.3-2.3h8.4
			c1.3,0.1,2.2,1.2,2.1,2.4c-0.1,1.2-1,2.1-2.1,2.1h-8.5C49.9,26.9,48.9,25.9,49,24.6C48.9,24.6,48.9,24.6,49,24.6L49,24.6z
			 M29.2,54l-1.4,1.4l1.4,1.4c1,0.8,1,2.2,0.2,3.2c-0.8,1-2.2,1-3.2,0.2c-0.1-0.1-0.2-0.1-0.3-0.3l-1.4-1.4L23.2,60
			c-1,0.7-2.4,0.6-3.2-0.4c-0.7-0.8-0.7-2,0-2.8l1.4-1.4L20,54c-0.9-0.9-0.8-2.4,0.1-3.2s2.2-0.8,3.1,0l1.4,1.4l1.3-1.4
			c0.9-0.9,2.4-0.9,3.3,0C30.1,51.7,30.1,53.2,29.2,54z M61.9,52.3c0,1.3-1,2.3-2.3,2.3h-8.4c-1.3,0-2.3-1-2.3-2.3s1-2.3,2.3-2.3
			l0,0h8.4C60.9,50,61.9,51,61.9,52.3z M61.9,58.6c0,1.3-1,2.3-2.3,2.3h-8.4c-1.3,0-2.3-1-2.3-2.3c0-1.3,1-2.3,2.3-2.3l0,0h8.4
			C60.9,56.3,61.9,57.3,61.9,58.6L61.9,58.6z"/>
	</g>
</g>
</svg>
