<?xml version="1.0" encoding="utf-8"?>
<!-- Generator: Adobe Illustrator 24.0.1, SVG Export Plug-In . SVG Version: 6.00 Build 0)  -->
<svg version="1.1" id="Layer_1" xmlns="http://www.w3.org/2000/svg" xmlns:xlink="http://www.w3.org/1999/xlink" x="0px" y="0px"
	 viewBox="0 0 80 80" style="enable-background:new 0 0 80 80;" xml:space="preserve">
<style type="text/css">
	.st0{fill:#2A9D8F;}
</style>
<title>50Asset 1</title>
<g id="Layer_2_1_">
	<g id="Layer_1-2">
		<path class="st0" d="M33.4,42.5c-4.7-0.6-9.4-0.9-14.2-0.9c-4.8,0-9.5,0.3-14.2,0.9c-2.1,0.3-3.8,2-4.1,4.1
			c-1.2,9.4-1.2,19,0,28.4c0.3,2.1,2,3.7,4.1,4c4.7,0.6,9.5,0.9,14.2,0.9c4.7,0,9.5-0.3,14.2-0.9c2.2-0.3,3.9-2,4.1-4.1
			c1.2-9.4,1.2-18.9,0-28.3C37.2,44.5,35.5,42.8,33.4,42.5L33.4,42.5z M31.5,73.1c-4.1,0.5-8.2,0.7-12.3,0.7
			c-4.1,0-8.2-0.2-12.3-0.7c-0.9-8.2-0.9-16.5,0-24.7c8.2-0.9,16.5-0.9,24.7,0C32.4,56.7,32.4,64.9,31.5,73.1L31.5,73.1z M75,42.5
			c-4.7-0.6-9.4-0.9-14.2-0.9c-4.8,0-9.5,0.3-14.2,0.9c-2.1,0.3-3.8,2-4.1,4.1c-1.2,9.4-1.2,19,0,28.4c0.3,2.1,2,3.7,4.1,4
			c4.7,0.6,9.5,0.9,14.2,0.9c4.7,0,9.5-0.3,14.2-0.9c2.2-0.3,3.9-2,4.1-4.1c1.2-9.4,1.2-18.9,0-28.3C78.8,44.5,77.1,42.8,75,42.5z
			 M73.2,73.1c-4.1,0.5-8.2,0.7-12.3,0.7c-4.1,0-8.2-0.2-12.3-0.7c-0.9-8.2-0.9-16.5,0-24.7c8.2-0.9,16.5-0.9,24.6,0
			C74.1,56.7,74.1,64.9,73.2,73.1L73.2,73.1z M33.4,0.9C28.7,0.3,23.9,0,19.2,0C14.4,0,9.7,0.3,4.9,0.9C2.8,1.2,1.1,2.9,0.9,5
			c-1.2,9.4-1.2,19,0,28.4c0.3,2.1,2,3.8,4.1,4c4.7,0.6,9.4,0.9,14.2,0.9c4.7,0,9.5-0.3,14.2-0.9c2.2-0.2,3.9-1.9,4.1-4.1
			c1.2-9.4,1.2-18.9,0-28.4C37.2,2.9,35.5,1.2,33.4,0.9z M31.5,31.5c-4.1,0.5-8.2,0.7-12.3,0.7c-4.1,0-8.2-0.2-12.3-0.7
			C5.9,23.3,5.9,15,6.8,6.8c4.1-0.5,8.2-0.7,12.3-0.7c4.1,0,8.2,0.2,12.3,0.7C32.4,15,32.4,23.3,31.5,31.5z M46.6,37.5
			c4.7,0.6,9.4,0.9,14.2,0.9c4.7,0,9.5-0.3,14.2-0.9c2.2-0.3,3.9-1.9,4.1-4.1c1.2-9.4,1.2-19,0-28.4c-0.3-2.2-2-3.9-4.1-4.1
			c-9.4-1.2-19-1.2-28.4,0c-2.1,0.3-3.8,2-4.1,4.1c-1.2,9.4-1.2,19,0,28.4C42.8,35.5,44.5,37.2,46.6,37.5L46.6,37.5z M48.5,6.8
			c4.1-0.5,8.2-0.7,12.3-0.7c4.1,0,8.2,0.2,12.3,0.7c0.9,8.2,0.9,16.5,0,24.7c-4.1,0.5-8.2,0.7-12.3,0.7c-4.1,0-8.2-0.2-12.3-0.7
			C47.6,23.3,47.6,15,48.5,6.8L48.5,6.8z M28,19.2c0,1.7-1.4,3.1-3.1,3.1h-2.7v2.6c-0.1,1.7-1.6,3-3.3,2.9c-1.6-0.1-2.8-1.3-2.9-2.9
			v-2.6h-2.6c-1.7-0.1-3-1.6-2.9-3.3c0.1-1.6,1.3-2.8,2.9-2.9h2.6v-2.6c0.1-1.7,1.6-3,3.3-2.9c1.6,0.1,2.8,1.3,2.9,2.9v2.6h2.6
			C26.6,16.1,28,17.4,28,19.2C28,19.1,28,19.2,28,19.2z M52.1,19.2c0-1.7,1.4-3.1,3.1-3.1h11.4c1.7,0.1,3,1.6,2.9,3.3
			c-0.1,1.6-1.3,2.8-2.9,2.9H55.1C53.4,22.3,52,20.9,52.1,19.2C52,19.2,52,19.2,52.1,19.2L52.1,19.2z M25.4,59l-1.9,1.9l1.9,1.9
			c1.3,1.1,1.4,3,0.3,4.3c-1.1,1.3-3,1.4-4.3,0.3c-0.1-0.1-0.3-0.2-0.4-0.4l-1.9-1.9L17.3,67C16,68,14,67.8,13,66.5
			c-0.9-1.1-0.9-2.7,0-3.8l1.9-1.9L13,59c-1.2-1.2-1.1-3.2,0.1-4.3c1.2-1.1,3-1.1,4.2,0l1.9,1.9l1.8-1.9c1.2-1.2,3.2-1.2,4.4,0
			C26.6,55.8,26.6,57.8,25.4,59z M69.6,56.6c0,1.7-1.4,3.1-3.1,3.1H55.1c-1.7,0-3.1-1.4-3.1-3.1s1.4-3.1,3.1-3.1c0,0,0,0,0,0h11.4
			C68.2,53.5,69.6,54.9,69.6,56.6z M69.6,65.1c0,1.7-1.4,3.1-3.1,3.1H55.1c-1.7,0-3.1-1.4-3.1-3.1c0-1.7,1.4-3.1,3.1-3.1
			c0,0,0,0,0,0h11.4C68.2,62.1,69.6,63.4,69.6,65.1C69.6,65.1,69.6,65.1,69.6,65.1z"/>
	</g>
</g>
</svg>
